<?xml version="1.0" encoding="utf-8"?>
<!-- Generator: Adobe Illustrator 16.0.4, SVG Export Plug-In . SVG Version: 6.00 Build 0)  -->
<!DOCTYPE svg PUBLIC "-//W3C//DTD SVG 1.1//EN" "http://www.w3.org/Graphics/SVG/1.1/DTD/svg11.dtd">
<svg version="1.1" id="Layer_1" xmlns="http://www.w3.org/2000/svg" xmlns:xlink="http://www.w3.org/1999/xlink" x="0px" y="0px"
	 width="32px" height="32px" viewBox="0 0 32 32" enable-background="new 0 0 32 32" xml:space="preserve">
<g>
	<g>
		<path fill="#FFFFFF" d="M29.977,19.747C28.332,14.304,16.33,1.554,16.33,1.554S4.45,14.43,2.262,19.747
			c-2.997,7.279,3.203,10.7,7.026,10.7c3.505,0,6.851-2.117,6.851-5.985c0,4.259,3.347,5.985,6.852,5.985
			C26.813,30.446,32.295,27.417,29.977,19.747z"/>
	</g>
	<g>
		<path fill="#231F20" d="M26.242,11.895c-0.137-0.063-3.451-1.546-10.104-1.546c-6.521,0-9.914,2.641-10.055,2.753
			c-0.305,0.242-0.435,0.643-0.334,1.019c0.102,0.375,0.416,0.656,0.8,0.713c0.03,0.004,3.049,0.479,5.074,2.802
			c2.158,2.478,2.658,3.462,3.146,6.915c0.066,0.47,0.743,0.255,1.218,0.261C15.996,24.862,16,24.892,16,24.892
			s0.004-0.03,0.012-0.082c0.471-0.005,1.479,0.431,1.479-0.456c0-1.295,0.615-5.331,2.337-7.062
			c2.435-2.45,6.238-3.559,6.275-3.569c0.395-0.113,0.675-0.458,0.708-0.867C26.842,12.449,26.613,12.064,26.242,11.895z"/>
		<path fill="#231F20" d="M22.99,31.814c-3.112,0-5.537-1.121-6.925-3.047c-1.346,1.781-3.622,3.047-6.777,3.047
			c-2.565,0-5.999-1.262-7.888-4.081c-1.104-1.648-2.068-4.461-0.402-8.508c2.254-5.48,13.834-18.066,14.327-18.6
			c0.258-0.279,0.619-0.438,0.997-0.44c0.003,0,0.006,0,0.008,0c0.377,0,0.737,0.155,0.996,0.43
			c0.5,0.53,12.242,13.05,13.961,18.734c1.351,4.467,0.206,7.326-0.992,8.939C28.366,30.888,25.256,31.814,22.99,31.814z
			 M17.506,24.461c0,4.167,3.836,4.618,5.484,4.618c1.529,0,3.781-0.635,5.109-2.422c1.195-1.612,1.389-3.803,0.568-6.516
			C27.51,16.31,20.128,7.716,16.342,3.578C13.465,6.773,5.236,16.112,3.527,20.266c-0.969,2.354-0.92,4.354,0.146,5.946
			c1.261,1.882,3.779,2.867,5.614,2.867c2.641,0,5.482-1.445,5.482-4.618c0-0.754,0.613-1.368,1.368-1.368
			S17.506,23.707,17.506,24.461z"/>
	</g>
</g>
</svg>
